<?xml version="1.0" encoding="UTF-8"?><svg id="a" xmlns="http://www.w3.org/2000/svg" viewBox="0 0 37.02 30"><defs><style>.b{fill:#878e9a;}</style></defs><path class="b" d="M16.66,23.19c-1.63-.02-2.91-.37-3.85-1.06-.94-.69-1.43-1.77-1.43-3.18v-3.91c0-.9-.28-1.54-.84-1.93-.56-.38-1.36-.57-2.4-.57v-1.94c1.04-.02,1.85-.21,2.4-.58s.84-1,.84-1.89v-3.93c0-1.42,.49-2.47,1.46-3.16,.97-.69,2.24-1.04,3.8-1.04V1.91c-.92,.04-1.64,.24-2.17,.62s-.78,1-.78,1.87v3.83c0,1.82-.97,2.9-2.9,3.24v.16c1.93,.34,2.9,1.42,2.9,3.24v3.91c0,.87,.28,1.51,.79,1.89,.51,.38,1.24,.58,2.18,.6v1.91Zm17.9-3.03h-7.81c-.29,1.54-1.13,2.47-1.86,2.98-1.18,.84-2.7,1.26-4.5,1.26h-1.21v-4.24h-1.31v4.26h-1.23c-1.88-.03-3.42-.47-4.56-1.31-.97-.71-1.57-1.7-1.79-2.95H2.49C1.13,20.16,.02,21.27,.02,22.62L0,27.53C0,28.89,1.11,30,2.47,30H34.53c1.36,0,2.47-1.11,2.47-2.47l.02-4.91c0-1.36-1.11-2.47-2.47-2.47Zm-4.58,8.01c-.68,0-1.23-.55-1.23-1.23s.55-1.23,1.23-1.23,1.23,.55,1.23,1.23-.55,1.23-1.23,1.23Zm3.7,0c-.68,0-1.23-.55-1.23-1.23s.55-1.23,1.23-1.23,1.23,.55,1.23,1.23-.55,1.23-1.23,1.23Zm-13.29-4.98v-1.91c.92-.04,1.64-.24,2.17-.62,.52-.38,.76-1.03,.76-1.89v-3.85c0-1.82,.97-2.9,2.9-3.24v-.16c-1.93-.34-2.9-1.42-2.9-3.24v-3.88c0-.87-.26-1.49-.77-1.87-.51-.38-1.24-.58-2.18-.6V0c1.63,.02,2.91,.37,3.85,1.06,.94,.69,1.41,1.74,1.41,3.16v3.88c0,.9,.28,1.55,.84,1.93s1.36,.57,2.4,.57v1.94c-1.04,.02-1.85,.21-2.4,.58s-.84,1-.84,1.89v3.96c0,1.42-.47,2.49-1.44,3.18-.97,.69-2.24,1.04-3.8,1.04Z"/></svg>