<?xml version="1.0" encoding="UTF-8"?><svg id="Layer_1" xmlns="http://www.w3.org/2000/svg" viewBox="0 0 36.61 30"><defs><style>.cls-1{fill:#9b2373;}</style></defs><path class="cls-1" d="m34.17,20.24h-10.45l-5.2,5.63-5.2-5.63H2.44C1.1,20.24,0,21.34,0,22.68v4.88C0,28.9,1.1,30,2.44,30h31.73c1.34,0,2.44-1.1,2.44-2.44v-4.88c0-1.34-1.1-2.44-2.44-2.44Zm-4.51,7.95c-.67,0-1.22-.55-1.22-1.22s.55-1.22,1.22-1.22,1.22.55,1.22,1.22-.55,1.22-1.22,1.22Zm3.66,0c-.67,0-1.22-.55-1.22-1.22s.55-1.22,1.22-1.22,1.22.55,1.22,1.22-.55,1.22-1.22,1.22Z"/><rect class="cls-1" x="11.58" width="13.86" height="3.12"/><polygon class="cls-1" points="28.81 13.23 25.45 13.23 25.45 5.79 11.58 5.79 11.58 13.23 8.22 13.23 18.51 24.37 28.81 13.23"/></svg>