<?xml version="1.0" encoding="UTF-8"?><svg id="Layer_1" xmlns="http://www.w3.org/2000/svg" viewBox="0 0 28.92 28.92"><defs><style>.cls-1{fill:#101e36;}</style></defs><path class="cls-1" d="m12.92,23.52v4.66c0,.38-.31.69-.69.69H.73c-.38,0-.69-.31-.69-.69v-11.5c0-.38.31-.69.69-.69h4.66c.38,0,.69.31.69.69v6.15h6.15c.38,0,.69.31.69.69ZM.69,12.88h4.66c.38,0,.69-.31.69-.69v-6.15h6.15c.38,0,.69-.31.69-.69V.69C12.88.31,12.57,0,12.19,0H.69C.31,0,0,.31,0,.69v11.5C0,12.57.31,12.88.69,12.88Zm27.54,3.17h-4.66c-.38,0-.69.31-.69.69v6.15h-6.15c-.38,0-.69.31-.69.69v4.66c0,.38.31.69.69.69h11.5c.38,0,.69-.31.69-.69v-11.5c0-.38-.31-.69-.69-.69ZM28.23,0h-11.5c-.38,0-.69.31-.69.69v4.66c0,.38.31.69.69.69h6.15v6.15c0,.38.31.69.69.69h4.66c.38,0,.69-.31.69-.69V.69C28.92.31,28.61,0,28.23,0Z"/></svg>