<?xml version="1.0" encoding="UTF-8"?><svg id="a" xmlns="http://www.w3.org/2000/svg" viewBox="0 0 29.5 20.65"><defs><style>.g{fill:#101e35;}</style></defs><g id="b" transform="translate(-6290 -6520)"><g id="c"><path id="d" class="g" d="M28.61,1.77H.88C.4,1.77,0,1.37,0,.88S.4,0,.88,0H28.61C29.1,0,29.5,.4,29.5,.88s-.4,.89-.88,.89Z"/><path id="e" class="g" d="M28.61,11.21H9.44c-.49,0-.89-.4-.89-.88s.4-.89,.89-.89H28.61c.49,0,.88,.4,.88,.89s-.4,.88-.88,.88h0Z"/><path id="f" class="g" d="M28.61,20.65h-9.73c-.49,0-.89-.4-.89-.89s.4-.88,.89-.88h9.73c.49,0,.88,.4,.88,.88s-.4,.89-.88,.89Z"/></g></g></svg>