<?xml version="1.0" encoding="UTF-8"?><svg id="a" xmlns="http://www.w3.org/2000/svg" viewBox="0 0 33.86 30"><defs><style>.c{fill:#878e9a;}</style></defs><g id="b"><path class="c" d="M4.6,29.24s-.03,.76,.71,.76c.92,0,8.53-.01,8.53-.01v-6.99s-.11-1.15,1.01-1.15h3.54c1.32,0,1.24,1.15,1.24,1.15l-.02,6.97h8.35c.94,0,.9-.94,.9-.94v-12.9L17.1,5.66,4.6,16.13v13.11Z"/><path class="c" d="M0,15.16s1.06,1.96,3.38,0L17.21,3.45l12.97,11.63c2.68,1.93,3.68,0,3.68,0L17.21,0,0,15.16Z"/><polygon class="c" points="29.86 3.43 26.52 3.43 26.54 7.47 29.86 10.29 29.86 3.43"/></g></svg>