<?xml version="1.0" encoding="UTF-8"?><svg id="a" xmlns="http://www.w3.org/2000/svg" viewBox="0 0 28.92 28.92"><defs><style>.b{fill:#fff;}</style></defs><path class="b" d="M5.78,2.89c0,1.6-1.29,2.89-2.89,2.89S0,4.49,0,2.89,1.29,0,2.89,0s2.89,1.29,2.89,2.89Zm23.13,1.89V1C28.92,.45,28.47,0,27.92,0H10.16C9.6,0,9.16,.45,9.16,1v3.78c0,.55,.45,1,1,1H27.92c.55,0,1-.45,1-1ZM2.89,11.57C1.29,11.57,0,12.86,0,14.46s1.29,2.89,2.89,2.89,2.89-1.29,2.89-2.89-1.29-2.89-2.89-2.89Zm26.02,4.78v-3.78c0-.55-.45-1-1-1H10.16c-.55,0-1,.45-1,1v3.78c0,.55,.45,1,1,1H27.92c.55,0,1-.45,1-1ZM2.89,23.13C1.29,23.13,0,24.43,0,26.02s1.29,2.89,2.89,2.89,2.89-1.29,2.89-2.89-1.29-2.89-2.89-2.89Zm26.02,4.78v-3.78c0-.55-.45-1-1-1H10.16c-.55,0-1,.45-1,1v3.78c0,.55,.45,1,1,1H27.92c.55,0,1-.45,1-1Z"/></svg>