<?xml version="1.0" encoding="UTF-8"?><svg id="Layer_1" xmlns="http://www.w3.org/2000/svg" viewBox="0 0 30 30"><defs><style>.cls-1{fill:#fff;}.cls-2{fill:#878e9a;}</style></defs><path class="cls-1" d="m15,25.88c-1.96-4.38-6.5-8.92-10.88-10.88,4.38-1.96,8.92-6.5,10.88-10.88,1.96,4.38,6.5,8.92,10.88,10.88-4.38,1.96-8.92,6.5-10.88,10.88Z"/><path class="cls-2" d="m15,6.3c2,3.43,5.28,6.7,8.7,8.7-3.43,2-6.7,5.28-8.7,8.7-2-3.43-5.28-6.7-8.7-8.7,3.43-2,6.7-5.28,8.7-8.7m0-6.3C15,6,6,15,0,15c6,0,15,9,15,15,0-6,9-15,15-15-6,0-15-9-15-15h0Z"/></svg>