<?xml version="1.0" encoding="UTF-8"?><svg id="Layer_1" xmlns="http://www.w3.org/2000/svg" viewBox="0 0 28.92 28.92"><defs><style>.cls-1{fill:#101e36;}</style></defs><path class="cls-1" d="m17.07,11.71H1C.45,11.71,0,11.26,0,10.71V1C0,.45.45,0,1,0h16.07c.55,0,1,.45,1,1v9.71c0,.55-.45,1-1,1Zm11.84-1V1C28.92.45,28.47,0,27.92,0h-5.23C22.13,0,21.69.45,21.69,1v9.71c0,.55.45,1,1,1h5.23c.55,0,1-.45,1-1ZM7.23,27.92v-11.62c0-.55-.45-1-1-1H1c-.55,0-1,.45-1,1v11.62c0,.55.45,1,1,1h5.23c.55,0,1-.45,1-1Zm21.69,0v-11.62c0-.55-.45-1-1-1H11.84c-.55,0-1,.45-1,1v11.62c0,.55.45,1,1,1h16.07c.55,0,1-.45,1-1Z"/></svg>