<?xml version="1.0" encoding="UTF-8"?><svg id="Layer_1" xmlns="http://www.w3.org/2000/svg" viewBox="0 0 29.48 30"><defs><style>.cls-1{fill:#fff;}</style></defs><path class="cls-1" d="m28.44,26.14l-9.32-8.04c1.83-2.09,2.87-4.87,2.69-7.86-.18-2.91-1.48-5.58-3.67-7.51C15.96.8,13.15-.16,10.24.02,4.23.39-.35,5.59.02,11.59c.36,5.78,5.18,10.24,10.89,10.24.23,0,.45,0,.68-.02,2.3-.14,4.4-1,6.08-2.33l7.7,9.07s1.92,2.61,3.53.82c1.52-1.67-.47-3.23-.47-3.23Zm-17.04-7.41c-4.31.27-8.03-3.02-8.3-7.33-.27-4.31,3.02-8.03,7.33-8.3.17-.01.33-.02.5-.02,1.91,0,3.73.69,5.17,1.96,1.57,1.38,2.5,3.3,2.63,5.38h0c.27,4.31-3.02,8.03-7.33,8.3Z"/></svg>