<?xml version="1.0" encoding="UTF-8"?><svg id="Layer_1" xmlns="http://www.w3.org/2000/svg" viewBox="0 0 36 30"><defs><style>.cls-1{fill:#101e36;}</style></defs><path class="cls-1" d="m0,25.5c0-.83.68-1.5,1.5-1.5h33c.83,0,1.5.68,1.5,1.5v3c0,.83-.68,1.5-1.5,1.5H1.5c-.83,0-1.5-.68-1.5-1.5v-3Zm6-9c0,.83.68,1.5,1.5,1.5h21c.83,0,1.5-.68,1.5-1.5v-3c0-.83-.68-1.5-1.5-1.5H7.5c-.83,0-1.5.68-1.5,1.5v3Zm6-12c0,.83.68,1.5,1.5,1.5h9c.83,0,1.5-.68,1.5-1.5V1.5c0-.83-.68-1.5-1.5-1.5h-9c-.83,0-1.5.68-1.5,1.5v3Z"/></svg>