<?xml version="1.0" encoding="UTF-8"?><svg id="a" xmlns="http://www.w3.org/2000/svg" viewBox="0 0 36 30"><defs><style>.b{fill:#fff;}</style></defs><path class="b" d="M0,25.5c0-.83,.68-1.5,1.5-1.5H34.5c.83,0,1.5,.68,1.5,1.5v3c0,.83-.68,1.5-1.5,1.5H1.5c-.83,0-1.5-.68-1.5-1.5v-3Zm6-9c0,.83,.68,1.5,1.5,1.5H28.5c.83,0,1.5-.68,1.5-1.5v-3c0-.83-.68-1.5-1.5-1.5H7.5c-.83,0-1.5,.68-1.5,1.5v3ZM12,4.5c0,.83,.68,1.5,1.5,1.5h9c.83,0,1.5-.68,1.5-1.5V1.5c0-.83-.68-1.5-1.5-1.5H13.5c-.83,0-1.5,.68-1.5,1.5v3Z"/></svg>