<svg id="Layer_1" data-name="Layer 1" xmlns="http://www.w3.org/2000/svg" viewBox="0 0 30 30"><defs><style>.cls-1{fill:#fff}</style></defs><path class="cls-1" d="M20.41 14.7c0-.2-.1-.38-.24-.51a.752.752 0 00-.49-.19c-.21 0-.41.09-.55.24l-3.39 3.75v-7.92c0-.41-.33-.74-.74-.74s-.74.33-.74.74v7.92l-3.39-3.75a.756.756 0 00-.55-.24.733.733 0 00-.73.7c-.01.2.06.39.19.53l4.68 5.19c.06.06.12.1.24.17a.697.697 0 00.64-.04c.06-.03.12-.07.19-.15l4.67-5.18c.13-.15.2-.33.19-.53zM3.28 25.91v-7.95c0-1.44-.41-2.41-1.25-2.96.84-.55 1.25-1.52 1.25-2.96V4.08c0-1.44.92-2.58 2.1-2.58h2.35V0H5.38C3.64 0 1.77 1.56 1.77 4.09v7.96c0 1.1-.47 2.2-1.52 2.2H0v1.51h.25c1.05 0 1.52 1.11 1.52 2.2v7.95c0 2.53 1.88 4.09 3.61 4.09h2.35v-1.51H5.38c-1.16 0-2.1-1.16-2.1-2.58zM29.75 14.24c-1.05 0-1.52-1.11-1.52-2.2V4.08c0-2.52-1.88-4.09-3.61-4.09h-2.35V1.5h2.35c1.18 0 2.1 1.13 2.1 2.58v7.96c0 1.44.41 2.41 1.25 2.96-.84.55-1.25 1.52-1.25 2.96v7.95c0 1.42-.94 2.58-2.1 2.58h-2.35V30h2.35c1.74 0 3.61-1.56 3.61-4.09v-7.95c0-1.1.47-2.2 1.52-2.2H30v-1.51h-.25z"/></svg>